<svg id="Layer_1" data-name="Layer 1" xmlns="http://www.w3.org/2000/svg" viewBox="0 0 50 50"><defs><style>.cls-1{fill:#e0e0e0;}</style></defs><path class="cls-1" d="M37.06,12.09,34,16,38,20.56,38,30l-6,6.95c0-1.59-.05-3.17-.07-4.76l3.3-3.78V21.21q-4.23,4.61-8.47,9.19l0,19.08,16.42-18L43.3,19Z"/><path class="cls-1" d="M34.86,9.76l-3,3.85-.09,7.1L26.73,26Q26.64,13.28,26.56.52Z"/><path class="cls-1" d="M12.94,12.09,16,16,12,20.56l.09,9.4,6,6.95c0-1.59.05-3.17.07-4.76l-3.3-3.78V21.21q4.23,4.61,8.47,9.19l0,19.08-16.42-18L6.7,19Z"/><path class="cls-1" d="M15.14,9.76l3,3.85.09,7.1L23.27,26q.09-12.75.17-25.51Z"/></svg>