<svg id="Layer_1" data-name="Layer 1" xmlns="http://www.w3.org/2000/svg" viewBox="0 0 50 50"><defs><style>.cls-1{fill:#e73c37;}</style></defs><path class="cls-1" d="M37.06,12.11,34,16l4,4.56V30l-6,7c0-1.59-.05-3.17-.07-4.76l3.3-3.79V21.23Q31,25.84,26.76,30.42V49.49l16.42-18L43.3,19Z"/><path class="cls-1" d="M31.86,13.62l3-3.84L26.56.54q.07,12.75.17,25.48l5-5.29Z"/><path class="cls-1" d="M14.86,28.39l3.3,3.78c0,1.59-.07,3.17-.07,4.75l-6-6.94L12,20.58,16,16l-3.06-3.91L6.7,19l.21,12.47,16.42,18V30.42q-4.24-4.59-8.47-9.19Z"/><path class="cls-1" d="M18.14,13.62l.09,7.11,5,5.29q.09-12.75.17-25.51l-8.3,9.27Z"/></svg>